PathFileType	4	(X/Y/Z)	C:\Git\research_data\Projects\squatting_fais\c3dfiles\036\SJ_pre1\markers_experimental.trc
DataRate	CameraRate	NumFrames	NumMarkers	Units	OrigDataRate	OrigDataStartFrame	OrigNumFrames
200.000000	200.000000	4	62	mm	200.000000	1375	2200
Frame#	Time	FHD			LBHD			RBHD			C7			T10			CLAV			LSHO			LUUPA			LMUPA			LDUPA			LLEP			LMEP			LRAD			LUL			LRFIN			RSHO			RUPA1			RMUPA			RDUPA			RLEP			RMEP			RRAD			RUL			RUFIN			LASI			RASI			USACR			LSACR			RSACR			LTHI1			LTHI2			LTHI3			LTHI4			LLFC			LMFC			LTIB1			LTIB2			LTIB3			LTIB4			LLMAL			LMMAL			LHEE			LMT1			LMT2			LMT5			RTHI			RTHI2			RTHI3			RTHI4			RLFC			RMFC			RTIB1			RTIB2			RTIB3			RTIB4			RLMAL			RMMAL			RHEE			RMT1			RMT2			RMT5			*61			
		X1	Y1	Z1	X2	Y2	Z2	X3	Y3	Z3	X4	Y4	Z4	X5	Y5	Z5	X6	Y6	Z6	X7	Y7	Z7	X8	Y8	Z8	X9	Y9	Z9	X10	Y10	Z10	X11	Y11	Z11	X12	Y12	Z12	X13	Y13	Z13	X14	Y14	Z14	X15	Y15	Z15	X16	Y16	Z16	X17	Y17	Z17	X18	Y18	Z18	X19	Y19	Z19	X20	Y20	Z20	X21	Y21	Z21	X22	Y22	Z22	X23	Y23	Z23	X24	Y24	Z24	X25	Y25	Z25	X26	Y26	Z26	X27	Y27	Z27	X28	Y28	Z28	X29	Y29	Z29	X30	Y30	Z30	X31	Y31	Z31	X32	Y32	Z32	X33	Y33	Z33	X34	Y34	Z34	X35	Y35	Z35	X36	Y36	Z36	X37	Y37	Z37	X38	Y38	Z38	X39	Y39	Z39	X40	Y40	Z40	X41	Y41	Z41	X42	Y42	Z42	X43	Y43	Z43	X44	Y44	Z44	X45	Y45	Z45	X46	Y46	Z46	X47	Y47	Z47	X48	Y48	Z48	X49	Y49	Z49	X50	Y50	Z50	X51	Y51	Z51	X52	Y52	Z52	X53	Y53	Z53	X54	Y54	Z54	X55	Y55	Z55	X56	Y56	Z56	X57	Y57	Z57	X58	Y58	Z58	X59	Y59	Z59	X60	Y60	Z60	X61	Y61	Z61	X62	Y62	Z62	

1376	6.875	123.009391784668	1065.99560546875	-898.3166503906252	-43.44695281982423	1019.236999511719	-967.1088867187502	-0.7373360991477967	1043.969604492188	-822.3272705078127	-80.72411346435548	985.748718261719	-920.0232543945315	-326.1386413574219	820.2920532226565	-915.3142700195315	-11.87558650970459	834.410583496094	-887.0133056640627	10.12018775939942	881.3176879882815	-1025.95654296875	-77.9509963989258	852.9505004882815	-1177.453491210938	-94.78073120117189	805.9565429687502	-1181.497436523438	-124.1898727416992	832.951599121094	-1226.817016601563	-173.580551147461	808.1182861328127	-1252.635620117188	-208.5446929931641	865.9134521484377	-1240.513305664063	-343.0743713378907	657.4967651367189	-1186.23193359375	-355.4339599609376	711.9423828125001	-1142.926879882813	-336.6631469726563	673.0823974609376	-1098.733032226563	-23.45406341552735	910.7409667968752	-755.5364990234376	-127.4332427978516	905.2730712890627	-630.5564575195314	-132.8451232910157	856.7376098632815	-619.9819946289064	-172.2860107421875	880.7153930664065	-581.7141113281251	-231.447494506836	843.3471679687502	-549.5522460937501	-285.2118530273438	882.5173339843752	-587.2866210937501	-366.2166442871094	707.2926635742189	-682.1488037109376	-348.9856567382813	657.2509155273439	-640.3319702148439	-351.3453674316407	671.0165405273439	-725.7725219726564	nan	nan	nan	nan	nan	nan	-420.1679992675782	774.8175048828127	-921.6894531250002	-451.8211364746095	766.6773071289064	-948.8669433593752	-445.1731872558595	768.716491699219	-893.1335449218752	-401.1531982421876	590.3263549804689	-1145.2314453125	-325.1970825195313	559.3887329101564	-1147.267333984375	-298.2271728515626	591.0842285156251	-1123.862915039063	-305.0740356445313	507.1705627441407	-1155.12841796875	-206.5401916503907	404.3091735839845	-1163.737426757813	-169.0037078857422	372.3361511230469	-1013.644409179688	-179.6175384521485	239.9315185546876	-1082.939575195313	-224.8807678222657	213.3727264404297	-1152.887451171875	-204.1508483886719	199.9044952392579	-1115.344360351563	-245.1274871826172	132.474609375	-1081.35693359375	-333.3045654296876	83.52069091796876	-1133.992553710938	-310.1348876953126	83.97605895996095	-1050.952758789063	-391.4664916992189	61.0643997192383	-1093.60009765625	-200.4486846923829	50.87524032592775	-1075.932495117188	-190.299301147461	53.34313583374025	-1123.461303710938	-233.3943481445313	35.78098297119141	-1172.210571289063	-431.3242187500001	510.6650390625001	-682.7793579101564	-366.7781677246094	508.4520263671876	-663.7956542968751	-348.3461608886719	535.5742797851564	-663.2930908203126	-315.6867065429688	444.2354736328126	-659.7728881835939	-214.2696838378907	396.8915405273439	-642.2478637695314	-162.1533203125	407.8392639160157	-781.8569335937502	-188.626205444336	250.9366760253907	-690.7930908203126	-286.5952148437501	204.5103149414063	-656.2058715820314	-247.2565307617188	189.3913269042969	-676.1196289062501	-254.2986602783204	142.9259643554688	-713.6043701171876	-366.7591247558594	84.58001708984376	-707.7431640625001	-320.1065368652344	81.7695999145508	-779.0130004882815	-408.2893981933595	58.0310745239258	-752.6889038085939	-211.8955383300782	48.41977691650392	-726.6757202148439	-221.8553771972657	56.79671859741212	-678.1321411132814	-269.4468688964844	36.49868774414063	-639.3782348632814	nan	nan	nan	
1377	6.88	123.269645690918	1065.82373046875	-898.3228149414065	-43.03331756591798	1019.061706542969	-967.1530761718752	-0.5005868077278138	1043.863525390625	-822.4027099609377	-80.43101501464845	985.638610839844	-920.109313964844	-325.8942260742188	820.2672119140627	-915.2812500000002	-11.81393337249756	834.302429199219	-886.9860839843752	10.24607276916504	881.2441406250002	-1026.11328125	-77.70055389404298	852.9324951171877	-1177.417724609375	-94.64626312255861	805.8914794921877	-1181.460693359375	-124.0384063720703	832.9070434570315	-1226.75341796875	-173.3829803466797	808.1342773437502	-1252.650756835938	-208.396957397461	865.9358520507815	-1240.468017578125	-342.9721069335938	657.5784301757814	-1186.192626953125	-355.2346801757813	711.9741821289064	-1142.911254882813	-336.6476135253907	673.1414184570314	-1098.710571289063	-22.93670654296875	910.5620727539065	-755.6713256835939	-127.1262588500977	905.142517089844	-630.4898071289064	-132.6425170898438	856.5745239257815	-619.9774169921876	-171.965805053711	880.688171386719	-581.7260131835939	-231.0303039550782	843.2349853515627	-549.5289916992189	-285.0703125000001	882.665466308594	-587.1760253906251	-366.0742492675782	707.3656005859376	-682.1271972656251	-348.9008178710938	657.2482299804689	-640.2939453125001	-351.3473205566407	671.0120239257814	-725.7721557617189	nan	nan	nan	nan	nan	nan	-420.0754699707032	774.917175292969	-921.6671142578127	-451.4372558593751	766.6560058593751	-948.8421020507815	-444.890838623047	768.746765136719	-893.0469970703127	-401.002166748047	590.4215087890626	-1145.21142578125	-325.2030334472657	559.4633789062501	-1147.2578125	-298.1630859375001	591.1539916992189	-1123.852294921875	-304.9656982421876	507.1665954589845	-1155.154296875	-206.5338897705079	404.3165283203126	-1163.730224609375	-168.9964294433594	372.2650756835938	-1013.754699707031	-179.6253356933594	239.9476623535157	-1082.979736328125	-224.8809814453126	213.3709106445313	-1152.8916015625	-204.2100219726563	199.8792572021485	-1115.356567382813	-245.0774078369141	132.4576263427735	-1081.37109375	-333.2682495117188	83.49192810058595	-1134.033569335938	-310.1145019531251	83.99483489990236	-1050.97607421875	-391.4710998535157	61.07087707519533	-1093.596435546875	-200.4458618164063	50.87445068359376	-1075.959838867188	-190.3182373046875	53.34926223754884	-1123.43359375	-233.6584472656251	35.71531677246094	-1172.071411132813	-431.148162841797	510.7543945312501	-682.7709960937501	-366.6929931640626	508.4619445800782	-663.8213500976564	-348.2644653320313	535.6590576171876	-663.3145751953126	-315.6214599609376	444.305877685547	-659.7631835937501	-214.2500915527344	396.8963317871095	-642.2285156250001	-161.956298828125	407.8683166503907	-781.8684082031252	-188.6220092773438	250.9234161376954	-690.7996826171876	-286.5945129394532	204.5128784179688	-656.2098388671876	-247.2341308593751	189.4109954833985	-676.0858154296876	-254.2770690917969	142.9418029785157	-713.5297241210939	-366.7710571289063	84.5878372192383	-707.6950683593751	-320.0730590820313	81.79190063476564	-778.9718017578127	-408.2478027343751	58.07929992675783	-752.6771240234376	-211.8416137695313	48.34800720214845	-726.6001586914064	-221.9860839843751	56.81830215454103	-678.1154174804689	-269.4836425781251	36.47710418701173	-639.3959350585939	nan	nan	nan	
1378	6.885	123.4958648681641	1065.62646484375	-898.259460449219	-42.73618316650391	1018.958374023438	-967.1882934570315	-0.2582516968250275	1043.752807617188	-822.4399414062502	-80.0774612426758	985.5104980468752	-920.1983642578127	-325.6502075195313	820.2413330078127	-915.3010864257815	-11.46284484863281	834.165710449219	-887.0861816406252	10.57457065582276	881.1094360351565	-1026.193969726563	-77.45497131347658	852.8666992187502	-1177.438842773438	-94.58142089843751	805.8423461914065	-1181.48583984375	-123.8711853027344	832.897399902344	-1226.753784179688	-173.1907653808594	808.069519042969	-1252.659423828125	-208.1987457275391	865.9497680664065	-1240.411987304688	-342.7934265136719	657.5838012695314	-1186.215576171875	-355.0611877441407	712.0445556640626	-1142.816162109375	-336.4013061523438	673.2897949218751	-1098.712524414063	-22.69425010681153	910.4153442382815	-755.6530151367189	-126.7658767700196	904.9550781250002	-630.5513916015626	-132.4025115966797	856.4532470703127	-619.9250488281251	-171.6146850585938	880.5288696289065	-581.7826538085939	-230.6873474121094	843.1804809570315	-549.5962524414064	-284.6857299804688	882.4973754882815	-587.1785278320314	-365.8222045898438	707.4233398437501	-682.1212768554689	-348.8231811523438	657.2655029296876	-640.3013305664064	-351.3604125976563	670.9947509765626	-725.8051757812501	nan	nan	nan	nan	nan	nan	-419.8662719726564	775.1753540039065	-921.6948852539065	-451.4024047851564	766.7973022460939	-948.7832031250002	-444.7674560546876	768.7673950195315	-893.0093994140627	-400.9706420898439	590.4771118164064	-1145.23828125	-325.1571655273438	559.5247802734376	-1147.252075195313	-298.1076660156251	591.1629028320314	-1123.808471679688	-305.0949707031251	507.2325744628907	-1155.17236328125	-206.4611816406251	404.3600463867189	-1163.733764648438	-169.0074920654297	372.2631225585938	-1013.698974609375	-179.6021728515625	239.8881530761719	-1082.96923828125	-224.8762969970704	213.3707122802735	-1152.888549804688	-204.1569976806641	199.8851776123047	-1115.383666992188	-245.1096343994141	132.4748229980469	-1081.400146484375	-333.2808532714844	83.49755859375001	-1134.024658203125	-310.1268920898438	83.99341583251955	-1050.950927734375	-391.4390869140626	61.04315567016603	-1093.65966796875	-200.4976196289063	50.92258453369142	-1075.906982421875	-190.4421081542969	53.39893341064455	-1123.521484375	-233.3081512451172	35.44478225708009	-1171.747192382813	-431.0635375976564	510.8231811523439	-682.7722778320314	-366.5939025878907	508.522674560547	-663.7858886718751	-348.1905212402344	535.6608276367189	-663.2610473632814	-315.5641784667969	444.4163513183595	-659.7416381835939	-214.1664733886719	396.8846435546876	-642.2151489257814	-161.9394073486328	407.9257202148439	-781.8699951171877	-188.5923156738282	250.8697052001954	-690.8084106445314	-286.5516662597657	204.4812164306641	-656.2154541015626	-247.2495727539063	189.3896636962891	-676.0833740234376	-254.2462463378907	142.948715209961	-713.5455322265626	-366.7800292968751	84.57553863525392	-707.7252807617189	-320.0962829589844	81.80713653564455	-778.9627685546877	-408.2584533691407	58.00985717773439	-752.7051391601564	-211.8914184570313	48.33285140991212	-726.6292114257814	-221.9542999267579	56.81448364257814	-678.1268920898439	-269.4441223144532	36.46557235717774	-639.3864746093751	nan	nan	nan	
1379	6.890000000000001	123.6915664672852	1065.496459960938	-898.2211914062502	-42.54871368408204	1018.796142578125	-967.2159423828127	-0.006649814546108248	1043.620239257813	-822.4772949218752	-79.74765014648439	985.387145996094	-920.2048339843752	-325.4504699707032	820.2750244140627	-915.2127075195315	-11.36477851867676	834.0606079101565	-887.0388793945315	10.89508724212647	880.9668579101565	-1026.299926757813	-77.22800445556642	852.7905883789065	-1177.418090820313	-94.50730895996095	805.8293457031252	-1181.43359375	-123.8218765258789	832.9045410156252	-1226.724853515625	-173.0713195800782	808.094665527344	-1252.643798828125	-207.9951324462891	865.943786621094	-1240.385498046875	-342.7236022949219	657.6179199218751	-1186.173706054688	-354.9021911621094	712.1269531250001	-1142.81103515625	-336.2579956054688	673.3209838867189	-1098.69677734375	-22.38888549804688	910.2039794921877	-755.5813598632814	-126.4306716918946	904.8526000976565	-630.5870971679689	-131.9582214355469	856.4234008789065	-619.9877319335939	-171.2397766113282	880.3762207031252	-581.7421875000001	-230.4199676513672	843.1255493164065	-549.5399169921876	-284.2382812500001	882.4627685546877	-587.2672729492189	-365.6226806640626	707.4790039062501	-682.1217041015626	-348.6407470703126	657.2725830078126	-640.2760009765626	-351.3230895996094	670.9298095703126	-725.7919311523439	nan	nan	nan	nan	nan	nan	-419.9288330078126	775.468688964844	-921.3651123046877	-451.1402893066407	766.8954467773439	-948.7445068359377	-444.8062744140626	768.8632812500002	-892.993591308594	-400.9566955566407	590.5213623046876	-1145.200561523438	-325.0138244628907	559.5609130859376	-1147.250610351563	-298.0788879394532	591.2207641601564	-1123.818725585938	-305.0361633300782	507.3205566406251	-1155.1591796875	-206.4415130615235	404.3538513183595	-1163.772583007813	-168.9086456298828	372.3267517089844	-1013.721923828125	-179.6055145263672	239.8899993896485	-1082.985595703125	-224.879867553711	213.3723602294922	-1152.8876953125	-204.1835021972657	199.8843231201172	-1115.384033203125	-245.0255432128907	132.4381866455078	-1081.462524414063	-333.3931579589844	83.54611206054689	-1134.039672851563	-310.1242065429688	83.98748016357423	-1050.953125	-391.4453430175782	61.04774475097658	-1093.644287109375	-200.5196380615235	50.87709808349611	-1075.910278320313	-190.34326171875	53.32036590576173	-1123.460205078125	-233.4114227294922	35.78707885742188	-1172.187622070313	-430.972625732422	510.9158630371095	-682.7362670898439	-366.5053405761719	508.560028076172	-663.7964477539064	-348.0513610839844	535.6445312500001	-663.2368164062501	-315.4461669921876	444.3837890625001	-659.7408447265626	-214.1050567626954	396.801971435547	-642.2559204101564	-161.9552154541016	407.8657836914064	-781.8684082031252	-188.6231689453125	250.8927612304688	-690.7761230468751	-286.5504760742188	204.4890594482422	-656.1681518554689	-247.2259826660157	189.3706359863282	-676.0418701171876	-254.2416534423829	142.9222259521485	-713.5816650390626	-366.7386779785157	84.57595062255861	-707.7418212890626	-320.1492614746094	81.80453491210939	-778.9916992187502	-408.2501220703126	58.02203369140626	-752.6843872070314	-211.8765869140626	48.37105560302736	-726.6548461914064	-222.0211791992188	56.86687088012697	-678.0970458984376	-269.4807128906251	36.47398757934571	-639.4026489257814	nan	nan	nan	
